<svg width="16" height="16" viewBox="0 0 16 16" fill="none" xmlns="http://www.w3.org/2000/svg">
<g clip-path="url(#clip0_1082_1175)">
<path d="M2.11933 10.2413L2.80933 2.99332H5.976L6.55733 9.09265M5.33667 0.585986C6.02481 0.572874 6.70713 0.714349 7.33333 0.999986C12.286 3.11465 14.3333 0.506653 14.3333 0.506653M0.5 15.4933H15.5V7.73332C15.4998 7.62052 15.4738 7.50925 15.4241 7.40803C15.3743 7.3068 15.302 7.2183 15.2128 7.14927C15.1236 7.08025 15.0198 7.03254 14.9093 7.00979C14.7988 6.98703 14.6846 6.98984 14.5753 7.01799L1 10.5333C0.856936 10.5704 0.730256 10.654 0.63987 10.7709C0.549483 10.8879 0.500517 11.0315 0.500667 11.1793L0.5 15.4933Z" stroke="#262626" stroke-linecap="round" stroke-linejoin="round"/>
<path d="M7.49999 12.8267H6.49999M4.16666 12.8267H3.16666M13.1667 15.494H9.83332V12.494C9.83332 12.3172 9.90356 12.1476 10.0286 12.0226C10.1536 11.8976 10.3232 11.8273 10.5 11.8273H12.5C12.6768 11.8273 12.8464 11.8976 12.9714 12.0226C13.0964 12.1476 13.1667 12.3172 13.1667 12.494V15.494Z" stroke="#262626" stroke-linecap="round" stroke-linejoin="round"/>
</g>
<defs>
<clipPath id="clip0_1082_1175">
<rect width="16" height="16" fill="white"/>
</clipPath>
</defs>
</svg>
